<svg width="310" height="54" viewBox="0 0 310 54" fill="none" xmlns="http://www.w3.org/2000/svg">
<rect width="53" height="53" rx="5" fill="#00ADB5"/>
<path d="M33.5057 20.8874C33.2824 20.111 32.9686 19.4249 32.5644 18.8293C32.1602 18.2231 31.6657 17.7125 31.0807 17.2977C30.5063 16.8723 29.8469 16.5479 29.1023 16.3245C28.3684 16.1011 27.5548 15.9895 26.6613 15.9895C24.9915 15.9895 23.5237 16.4043 22.258 17.2339C21.0029 18.0635 20.0244 19.2707 19.3224 20.8555C18.6204 22.4297 18.2694 24.3548 18.2694 26.6309C18.2694 28.9071 18.6151 30.8429 19.3064 32.4383C19.9978 34.0337 20.9763 35.2516 22.242 36.0918C23.5077 36.9214 25.0021 37.3362 26.7252 37.3362C28.2887 37.3362 29.6235 37.0597 30.7297 36.5066C31.8465 35.9429 32.6974 35.1505 33.2824 34.1294C33.878 33.1084 34.1758 31.9012 34.1758 30.5078L35.5798 30.7152H27.1559V25.5142H40.8287V29.6303C40.8287 32.5021 40.2225 34.9697 39.0099 37.0331C37.7974 39.0859 36.1275 40.6707 34.0003 41.7875C31.8731 42.8936 29.4374 43.4467 26.6933 43.4467C23.63 43.4467 20.9391 42.7713 18.6204 41.4205C16.3017 40.0591 14.4936 38.1286 13.196 35.6291C11.909 33.119 11.2655 30.1409 11.2655 26.6948C11.2655 24.0464 11.6484 21.6851 12.4142 19.6111C13.1906 17.5264 14.2755 15.7608 15.6689 14.3143C17.0622 12.8678 18.6842 11.7669 20.5349 11.0117C22.3856 10.2566 24.3905 9.87899 26.5497 9.87899C28.4004 9.87899 30.1234 10.1502 31.7188 10.6927C33.3143 11.2245 34.7289 11.9796 35.9627 12.9582C37.2071 13.9367 38.2229 15.1013 39.0099 16.4521C39.797 17.7923 40.3022 19.2707 40.5256 20.8874H33.5057Z" fill="white"/>
<path d="M68.8802 43.4786C66.3594 43.4786 64.1896 42.9681 62.3709 41.947C60.5627 40.9153 59.1694 39.4582 58.1908 37.5756C57.2123 35.6823 56.7231 33.4434 56.7231 30.8588C56.7231 28.3381 57.2123 26.1257 58.1908 24.2219C59.1694 22.318 60.5468 20.8342 62.323 19.7706C64.1099 18.707 66.2052 18.1752 68.609 18.1752C70.2257 18.1752 71.7307 18.4358 73.124 18.957C74.528 19.4675 75.7512 20.2386 76.7935 21.2703C77.8465 22.302 78.6655 23.5996 79.2504 25.1632C79.8354 26.716 80.1279 28.5348 80.1279 30.6195V32.4862H59.4353V28.2742H73.7303C73.7303 27.2957 73.5176 26.4289 73.0921 25.6737C72.6667 24.9185 72.0764 24.3282 71.3212 23.9028C70.5767 23.4667 69.7098 23.2486 68.7206 23.2486C67.6889 23.2486 66.7742 23.488 65.9765 23.9666C65.1894 24.4346 64.5725 25.0674 64.1258 25.8651C63.6791 26.6522 63.4504 27.5297 63.4398 28.4976V32.5021C63.4398 33.7146 63.6632 34.7623 64.1099 35.6451C64.5672 36.5279 65.2107 37.2086 66.0403 37.6872C66.87 38.1659 67.8538 38.4052 68.9919 38.4052C69.747 38.4052 70.4384 38.2988 71.0659 38.0861C71.6935 37.8734 72.2306 37.5543 72.6773 37.1288C73.124 36.7034 73.4644 36.1822 73.6984 35.5653L79.9843 35.9801C79.6653 37.4905 79.0111 38.8094 78.022 39.9368C77.0434 41.0536 75.7777 41.9257 74.2249 42.5533C72.6826 43.1702 70.9011 43.4786 68.8802 43.4786ZM84.5632 43V18.4943H91.1523V22.77H91.4076C91.8543 21.2491 92.6041 20.1003 93.6571 19.3239C94.7101 18.5368 95.9226 18.1433 97.2947 18.1433C97.6351 18.1433 98.002 18.1646 98.3955 18.2071C98.7891 18.2497 99.1348 18.3082 99.4326 18.3826V24.4133C99.1135 24.3176 98.6721 24.2325 98.1084 24.158C97.5446 24.0836 97.0288 24.0464 96.5608 24.0464C95.561 24.0464 94.6676 24.2644 93.8805 24.7005C93.104 25.1259 92.4871 25.7216 92.0298 26.4874C91.5831 27.2532 91.3597 28.136 91.3597 29.1358V43H84.5632ZM123.336 25.4822L117.114 25.8651C117.007 25.3333 116.779 24.8547 116.428 24.4293C116.077 23.9932 115.614 23.6475 115.04 23.3922C114.476 23.1263 113.801 22.9934 113.014 22.9934C111.961 22.9934 111.073 23.2167 110.349 23.6635C109.626 24.0995 109.264 24.6845 109.264 25.4184C109.264 26.0034 109.498 26.498 109.966 26.9022C110.434 27.3063 111.237 27.6307 112.375 27.8754L116.811 28.7688C119.193 29.2581 120.969 30.0452 122.139 31.13C123.309 32.2149 123.894 33.6402 123.894 35.4058C123.894 37.0118 123.421 38.4211 122.474 39.6337C121.538 40.8462 120.252 41.7928 118.614 42.4735C116.986 43.1436 115.109 43.4786 112.982 43.4786C109.738 43.4786 107.153 42.8032 105.228 41.4524C103.313 40.091 102.191 38.2403 101.862 35.9004L108.546 35.5494C108.749 36.5385 109.238 37.2937 110.014 37.8149C110.791 38.3254 111.785 38.5807 112.998 38.5807C114.189 38.5807 115.146 38.352 115.869 37.8946C116.603 37.4267 116.976 36.8257 116.986 36.0918C116.976 35.4749 116.715 34.9697 116.204 34.5762C115.694 34.172 114.907 33.8635 113.843 33.6508L109.599 32.8052C107.206 32.3266 105.425 31.497 104.255 30.3164C103.095 29.1358 102.516 27.6307 102.516 25.8013C102.516 24.2272 102.941 22.8711 103.792 21.733C104.654 20.5949 105.861 19.7174 107.414 19.1005C108.977 18.4836 110.807 18.1752 112.902 18.1752C115.997 18.1752 118.433 18.8293 120.209 20.1376C121.996 21.4458 123.038 23.2274 123.336 25.4822ZM139.246 43.4786C136.768 43.4786 134.625 42.9521 132.817 41.8992C131.019 40.8355 129.631 39.3571 128.653 37.4639C127.674 35.56 127.185 33.353 127.185 30.8429C127.185 28.3115 127.674 26.0991 128.653 24.2059C129.631 22.302 131.019 20.8236 132.817 19.7706C134.625 18.707 136.768 18.1752 139.246 18.1752C141.725 18.1752 143.862 18.707 145.66 19.7706C147.468 20.8236 148.861 22.302 149.84 24.2059C150.819 26.0991 151.308 28.3115 151.308 30.8429C151.308 33.353 150.819 35.56 149.84 37.4639C148.861 39.3571 147.468 40.8355 145.66 41.8992C143.862 42.9521 141.725 43.4786 139.246 43.4786ZM139.278 38.2137C140.406 38.2137 141.347 37.8946 142.102 37.2565C142.857 36.6077 143.426 35.7249 143.809 34.6081C144.203 33.4913 144.4 32.2203 144.4 30.795C144.4 29.3698 144.203 28.0987 143.809 26.9819C143.426 25.8651 142.857 24.9823 142.102 24.3335C141.347 23.6847 140.406 23.3603 139.278 23.3603C138.14 23.3603 137.183 23.6847 136.407 24.3335C135.641 24.9823 135.061 25.8651 134.668 26.9819C134.285 28.0987 134.093 29.3698 134.093 30.795C134.093 32.2203 134.285 33.4913 134.668 34.6081C135.061 35.7249 135.641 36.6077 136.407 37.2565C137.183 37.8946 138.14 38.2137 139.278 38.2137ZM162.524 28.8326V43H155.727V18.4943H162.205V22.8179H162.492C163.034 21.3926 163.944 20.2652 165.22 19.4356C166.496 18.5953 168.044 18.1752 169.863 18.1752C171.564 18.1752 173.048 18.5475 174.314 19.292C175.579 20.0365 176.563 21.1001 177.265 22.4828C177.967 23.8549 178.318 25.4929 178.318 27.3968V43H171.522V28.6093C171.532 27.1096 171.15 25.9396 170.373 25.0993C169.597 24.2484 168.528 23.823 167.166 23.823C166.252 23.823 165.443 24.0198 164.741 24.4133C164.05 24.8068 163.507 25.3812 163.114 26.1364C162.731 26.8809 162.534 27.7797 162.524 28.8326ZM194.201 43V10.3257H201.109V37.3043H215.117V43H194.201ZM219.564 43V18.4943H226.361V43H219.564ZM222.978 15.3353C221.968 15.3353 221.101 15.0003 220.378 14.3302C219.665 13.6495 219.309 12.8358 219.309 11.8892C219.309 10.9532 219.665 10.1502 220.378 9.48014C221.101 8.79942 221.968 8.45907 222.978 8.45907C223.989 8.45907 224.85 8.79942 225.563 9.48014C226.286 10.1502 226.648 10.9532 226.648 11.8892C226.648 12.8358 226.286 13.6495 225.563 14.3302C224.85 15.0003 223.989 15.3353 222.978 15.3353ZM231.805 43V18.4943H238.282V22.8179H238.57C239.08 21.382 239.931 20.2493 241.122 19.4196C242.313 18.59 243.739 18.1752 245.398 18.1752C247.078 18.1752 248.509 18.5953 249.69 19.4356C250.87 20.2652 251.657 21.3926 252.051 22.8179H252.306C252.806 21.4139 253.71 20.2918 255.018 19.4515C256.337 18.6006 257.895 18.1752 259.693 18.1752C261.98 18.1752 263.836 18.9038 265.261 20.3609C266.697 21.8074 267.415 23.8602 267.415 26.5193V43H260.634V27.8594C260.634 26.498 260.273 25.4769 259.549 24.7962C258.826 24.1155 257.922 23.7751 256.837 23.7751C255.603 23.7751 254.641 24.1687 253.949 24.9558C253.258 25.7322 252.912 26.7586 252.912 28.0349V43H246.323V27.7158C246.323 26.514 245.978 25.5567 245.286 24.8441C244.606 24.1315 243.707 23.7751 242.59 23.7751C241.835 23.7751 241.154 23.9666 240.548 24.3495C239.952 24.7218 239.479 25.2482 239.128 25.929C238.777 26.599 238.601 27.3861 238.601 28.2902V43H231.805ZM279.771 43.4627C278.208 43.4627 276.814 43.1915 275.591 42.649C274.368 42.0959 273.4 41.2823 272.688 40.208C271.986 39.1231 271.635 37.7723 271.635 36.1556C271.635 34.7942 271.885 33.6508 272.385 32.7255C272.884 31.8001 273.565 31.0556 274.427 30.4919C275.288 29.9282 276.267 29.5027 277.362 29.2155C278.468 28.9284 279.628 28.7263 280.84 28.6093C282.266 28.4604 283.414 28.3221 284.286 28.1945C285.159 28.0562 285.791 27.8541 286.185 27.5882C286.578 27.3223 286.775 26.9288 286.775 26.4076V26.3119C286.775 25.3014 286.456 24.5197 285.818 23.9666C285.19 23.4135 284.297 23.137 283.138 23.137C281.915 23.137 280.941 23.4082 280.218 23.9506C279.495 24.4824 279.016 25.1525 278.782 25.9609L272.496 25.4503C272.815 23.9613 273.443 22.6743 274.379 21.5894C275.315 20.4939 276.522 19.6536 278 19.0686C279.489 18.473 281.213 18.1752 283.17 18.1752C284.531 18.1752 285.834 18.3347 287.078 18.6538C288.333 18.9729 289.445 19.4675 290.413 20.1376C291.391 20.8076 292.162 21.6692 292.726 22.7222C293.29 23.7645 293.572 25.0143 293.572 26.4714V43H287.126V39.6017H286.935C286.541 40.3676 286.015 41.0429 285.355 41.6279C284.696 42.2023 283.903 42.6543 282.978 42.984C282.053 43.3031 280.984 43.4627 279.771 43.4627ZM281.718 38.7721C282.718 38.7721 283.6 38.5754 284.366 38.1818C285.132 37.7776 285.733 37.2352 286.169 36.5545C286.605 35.8738 286.823 35.1027 286.823 34.2411V31.6406C286.61 31.7789 286.318 31.9065 285.946 32.0235C285.584 32.1298 285.175 32.2309 284.717 32.3266C284.26 32.4117 283.802 32.4915 283.345 32.5659C282.888 32.6297 282.473 32.6882 282.101 32.7414C281.303 32.8584 280.606 33.0446 280.011 33.2998C279.415 33.5551 278.952 33.9008 278.623 34.3368C278.293 34.7623 278.128 35.2941 278.128 35.9323C278.128 36.8576 278.463 37.5649 279.133 38.0542C279.814 38.5328 280.675 38.7721 281.718 38.7721Z" fill="#FBFBFB"/>
<path d="M302.817 43.4148C301.764 43.4148 300.86 43.0425 300.105 42.298C299.36 41.5428 298.988 40.6388 298.988 39.5858C298.988 38.5434 299.36 37.65 300.105 36.9055C300.86 36.1609 301.764 35.7887 302.817 35.7887C303.838 35.7887 304.732 36.1609 305.498 36.9055C306.263 37.65 306.646 38.5434 306.646 39.5858C306.646 40.2878 306.465 40.9313 306.104 41.5163C305.753 42.0906 305.29 42.5533 304.716 42.9043C304.141 43.2446 303.509 43.4148 302.817 43.4148Z" fill="#00ADB5"/>
</svg>
